<svg xmlns="http://www.w3.org/2000/svg" width="512" height="512"><path d="M255.984 272.002a31.824 31.824 0 0 1-20.469-7.438c-13.578-11.313-15.406-31.469-4.094-45.063l159.984-192c11.312-13.563 31.469-15.406 45.094-4.063 13.562 11.313 15.406 31.469 4.094 45.063l-160.016 192a32 32 0 0 1-24.593 11.501zM512 240.001v32c0 17.688-14.312 32-32 32l-32 192H64l-32-192c-17.672 0-32-14.313-32-32v-32c0-17.688 14.328-32 32-32h188.188l-1.063 1.281c-16.938 20.344-14.188 50.656 6.156 67.594a47.983 47.983 0 0 0 30.703 11.125c14.297 0 27.734-6.281 36.891-17.25l52.281-62.75H480c17.688 0 32 14.313 32 32zM144 352.002c0-8.844-7.156-16-16-16s-16 7.156-16 16v96c0 8.844 7.156 16 16 16 8.844 0 16-7.156 16-16v-96zm64 0c0-8.844-7.156-16-16-16s-16 7.156-16 16v96c0 8.844 7.156 16 16 16s16-7.156 16-16v-96zm64 0c0-8.844-7.156-16-16-16s-16 7.156-16 16v96c0 8.844 7.156 16 16 16s16-7.156 16-16v-96zm64 0c0-8.844-7.156-16-16-16s-16 7.156-16 16v96c0 8.844 7.156 16 16 16s16-7.156 16-16v-96zm64 0c0-8.844-7.156-16-16-16s-16 7.156-16 16v96c0 8.844 7.156 16 16 16s16-7.156 16-16v-96z" fill="#343945"/></svg>
