<?xml version="1.0" encoding="iso-8859-1"?>
<!-- Generator: Adobe Illustrator 16.0.0, SVG Export Plug-In . SVG Version: 6.00 Build 0)  -->
<!DOCTYPE svg PUBLIC "-//W3C//DTD SVG 1.1//EN" "http://www.w3.org/Graphics/SVG/1.1/DTD/svg11.dtd">
<svg xmlns="http://www.w3.org/2000/svg" xmlns:xlink="http://www.w3.org/1999/xlink" version="1.1" id="Capa_1" x="0px" y="0px" width="512px" height="512px" viewBox="0 0 512 512" style="enable-background:new 0 0 512 512;" xml:space="preserve">
<g>
	<path d="M255.984,272.002c-7.219,0-14.484-2.438-20.469-7.438c-13.578-11.313-15.406-31.469-4.094-45.063l159.984-192   c11.312-13.563,31.469-15.406,45.094-4.063c13.562,11.313,15.406,31.469,4.094,45.063l-160.016,192   C274.25,268.064,265.156,272.002,255.984,272.002z M512,240.001v32c0,17.688-14.312,32-32,32l-32,192H64l-32-192   c-17.672,0-32-14.313-32-32v-32c0-17.688,14.328-32,32-32h188.188l-1.063,1.281c-16.938,20.344-14.188,50.656,6.156,67.594   c8.609,7.188,19.516,11.125,30.703,11.125c14.297,0,27.734-6.281,36.891-17.25l52.281-62.75H480   C497.688,208.001,512,222.314,512,240.001z M144,352.002c0-8.844-7.156-16-16-16s-16,7.156-16,16v96c0,8.844,7.156,16,16,16   c8.844,0,16-7.156,16-16V352.002z M208,352.002c0-8.844-7.156-16-16-16s-16,7.156-16,16v96c0,8.844,7.156,16,16,16s16-7.156,16-16   V352.002z M272,352.002c0-8.844-7.156-16-16-16s-16,7.156-16,16v96c0,8.844,7.156,16,16,16s16-7.156,16-16V352.002z M336,352.002   c0-8.844-7.156-16-16-16s-16,7.156-16,16v96c0,8.844,7.156,16,16,16s16-7.156,16-16V352.002z M400,352.002c0-8.844-7.156-16-16-16   s-16,7.156-16,16v96c0,8.844,7.156,16,16,16s16-7.156,16-16V352.002z" fill="#343945"/>
</g>
<g>
</g>
<g>
</g>
<g>
</g>
<g>
</g>
<g>
</g>
<g>
</g>
<g>
</g>
<g>
</g>
<g>
</g>
<g>
</g>
<g>
</g>
<g>
</g>
<g>
</g>
<g>
</g>
<g>
</g>
</svg>
